<svg id="Group_818" data-name="Group 818" xmlns="http://www.w3.org/2000/svg" xmlns:xlink="http://www.w3.org/1999/xlink" width="81.876" height="77.484" viewBox="0 0 81.876 77.484">
  <defs>
    <clipPath id="clip-path">
      <rect id="Rectangle_203" data-name="Rectangle 203" width="81.876" height="77.484" fill="none"/>
    </clipPath>
  </defs>
  <g id="Group_817" data-name="Group 817" clip-path="url(#clip-path)">
    <path id="Path_1813" data-name="Path 1813" d="M119.368,36.706c-5.161-6.32-5.23-16.04-.762-22.867S131.488,3.217,139.639,3.6s15.878,4.645,21.21,10.822a28.6,28.6,0,0,1,6.725,13.618,20.876,20.876,0,0,1-2.748,14.769,4.245,4.245,0,0,1,3.989,3.25A4,4,0,0,1,166.4,50.4a23.284,23.284,0,0,1,4.428,1.918,4.271,4.271,0,0,1,2.024,3.532c-.065,1.451-1.1,2.652-2.087,3.717a5.705,5.705,0,0,1,4.959,2.953A4.845,4.845,0,0,1,174.8,67.9a12.044,12.044,0,0,1,6.293,7.667,34.831,34.831,0,0,1-8.975,1.7,27.463,27.463,0,0,1,.351-8.914,5.7,5.7,0,0,1-4.7-2.77,4.76,4.76,0,0,1,.638-5.245,6.149,6.149,0,0,1-4.773-3.479,5.169,5.169,0,0,1,1.056-5.4,4.891,4.891,0,0,1-4.206-2.839,4.672,4.672,0,0,1,.852-4.9c-4.484,1.329-9.3.668-14-1.391a8.173,8.173,0,0,0,3.79-4.386,3.663,3.663,0,0,0,4.817-5.356c-1.032-1.343-3.061-1.8-5.17-.74,1.04-2.08.17-4.73-1.517-6.331a12.657,12.657,0,0,0-6.4-2.816,27.477,27.477,0,0,0-16.858-3.837,6.093,6.093,0,0,0-6.882,3.611,5.9,5.9,0,0,0,2.747,7.2,7.342,7.342,0,0,0,1.335,7.167,19.843,19.843,0,0,0-3.827-.137" transform="translate(-99.727 -3.088)" fill="#2d2a28"/>
    <path id="Path_1814" data-name="Path 1814" d="M209.528,267a2.719,2.719,0,0,1,1.85,2.018,2.606,2.606,0,0,1-.912,2.539,2.154,2.154,0,0,1,1.913,1.085,2.043,2.043,0,0,1-.1,2.142l-1.946.576a43.589,43.589,0,0,1-2.154-8.5c.539.188,1.079.376,1.346.136" transform="translate(-179.956 -230.682)" fill="#2d2a28"/>
    <path id="Path_1815" data-name="Path 1815" d="M118.781,324.65a93.706,93.706,0,0,0-1.454-10.49,45.31,45.31,0,0,0-10.849,1.088l2.535,13.876a1.331,1.331,0,0,0,1.714,1.315c1.94-.052,3.881-.1,5.827-.291a5.378,5.378,0,0,1-.738-2.767l2.835,1.018a5.926,5.926,0,0,1-1.261-1.41,2.006,2.006,0,0,1-.16-1.82,1.079,1.079,0,0,1,1.549-.52" transform="translate(-92.041 -271.556)" fill="#2d2a28"/>
    <path id="Path_1816" data-name="Path 1816" d="M454.4,129.187a19.551,19.551,0,0,0-3.419-8.5c-.386-.542.509-1.059.892-.521a20.213,20.213,0,0,1,3.523,8.747c.1.65-.9.931-1,.275" transform="translate(-389.752 -103.676)" fill="#fff"/>
    <path id="Path_1817" data-name="Path 1817" d="M425.832,88.96a4.622,4.622,0,0,0-.29-.559q-.078-.128-.164-.25c-.03-.043-.062-.085-.093-.127s.082.1.013.017l-.05-.061a4.594,4.594,0,0,0-.422-.447q-.116-.107-.238-.206l-.049-.039c.1.089.043.033.017.014-.046-.035-.094-.068-.141-.1a.516.516,0,0,1,.521-.892,5.1,5.1,0,0,1,1.789,2.131.564.564,0,0,1,.052.4.517.517,0,0,1-.944.123" transform="translate(-366.648 -74.542)" fill="#fff"/>
    <path id="Path_1818" data-name="Path 1818" d="M116.1,335.038l.63,4.018a.533.533,0,0,1-.361.635.52.52,0,0,1-.635-.361l-.63-4.018a.533.533,0,0,1,.361-.635.52.52,0,0,1,.635.361" transform="translate(-99.487 -289.287)" fill="#fff"/>
    <path id="Path_1819" data-name="Path 1819" d="M123.694,379.695l.157,1.1a.391.391,0,0,1,.009.206.384.384,0,0,1-.061.192.516.516,0,0,1-.707.185.5.5,0,0,1-.237-.309l-.157-1.1a.393.393,0,0,1-.009-.206.384.384,0,0,1,.061-.192.516.516,0,0,1,.707-.185.5.5,0,0,1,.237.309" transform="translate(-106.046 -327.888)" fill="#fff"/>
    <path id="Path_1820" data-name="Path 1820" d="M22.885,240.942,21.734,242.7a.359.359,0,1,1-.62-.363l1.151-1.761a.359.359,0,1,1,.62.362" transform="translate(-18.207 -207.806)" fill="#2d2a28"/>
    <path id="Path_1821" data-name="Path 1821" d="M26.82,250.509l-2.426,3.26a.37.37,0,0,1-.491.129.362.362,0,0,1-.129-.492l2.426-3.26a.37.37,0,0,1,.491-.129.362.362,0,0,1,.129.491" transform="translate(-20.505 -216.078)" fill="#2d2a28"/>
    <path id="Path_1822" data-name="Path 1822" d="M28.413,263.378l-3.39,4.06a.362.362,0,0,1-.508,0,.367.367,0,0,1,0-.508l3.39-4.06a.362.362,0,0,1,.508,0,.367.367,0,0,1,0,.508" transform="translate(-21.103 -227.139)" fill="#2d2a28"/>
    <path id="Path_1823" data-name="Path 1823" d="M20.322,326.69a12.644,12.644,0,0,1-3.774,2.527,8.843,8.843,0,0,1-4.417.916,9.39,9.39,0,0,1-7.56-5.553c-.725-1.571-1.169-3.245-1.746-4.871-.529-1.492-1.181-2.937-1.691-4.438-.3-.872-.558-1.757-.767-2.654A10.07,10.07,0,0,1,0,310.269a7.114,7.114,0,0,1,1.179-3.794c.749-1.1,2.283-2.05,3.6-1.248a1.7,1.7,0,0,1,.632,2.028c-.309.9-1.179,1.192-1.707,1.907l-.706-.706A3.246,3.246,0,0,1,5.1,307.6a1.622,1.622,0,0,1,1.491,1.134,2.1,2.1,0,0,1-.425,1.854c-.5.615-1.287.9-1.815,1.492l-.73-.73A2.815,2.815,0,0,1,5.4,310.5a1.391,1.391,0,0,1,1.348.986c.425,1.473-1.128,2.03-1.886,2.932l-.626-.811a3.071,3.071,0,0,1,1.952-.655,1.525,1.525,0,0,1,1.317.968c.481,1.432-1,2.246-2.11,2.607-.634.206-.905-.791-.275-1,.494-.161,1.535-.467,1.431-1.179-.128-.873-1.453-.072-1.794.146-.523.334-.984-.385-.626-.811a4.466,4.466,0,0,1,.759-.707,2.762,2.762,0,0,0,.755-.64c.168-.271.222-.677-.146-.786-.418-.123-.865.289-1.152.529a.517.517,0,0,1-.73-.73,5.609,5.609,0,0,1,1.118-.9,1.687,1.687,0,0,0,.868-1.016.625.625,0,0,0-.666-.8,2.684,2.684,0,0,0-1.426.719c-.406.305-1.006-.3-.707-.706.4-.541,1.014-.834,1.42-1.353.444-.566.286-1.3-.507-1.3-1.161,0-1.842,1.14-2.219,2.088a5.8,5.8,0,0,0-.35,3.261,27.682,27.682,0,0,0,1.285,4.533c.46,1.256,1,2.479,1.444,3.742.476,1.369.858,2.776,1.429,4.11a8.534,8.534,0,0,0,6.35,5.314c2.817.491,5.975-1.13,7.93-3.075a.517.517,0,0,1,.73.73" transform="translate(0 -263.586)" fill="#2d2a28"/>
    <path id="Path_1824" data-name="Path 1824" d="M16.8,231.81a109.374,109.374,0,0,1-1.418-11.252.521.521,0,0,1,.881-.365c2.542,2.945,5.209,5.776,7.947,8.539l-.5-.133c5.854-1.1,11.709-2.193,17.57-3.251a.527.527,0,0,1,.635.361l4.273,18.032c.153.646-.843.922-1,.275l-4.273-18.032.635.361q-5.984,1.081-11.96,2.2l-2.97.555-1.43.268a4.077,4.077,0,0,1-1.485.227c-.349-.1-.68-.59-.921-.835q-.529-.539-1.055-1.081-.99-1.021-1.964-2.057-2.166-2.306-4.235-4.7l.882-.365a106.651,106.651,0,0,0,1.381,10.977c.105.65-.89.93-1,.275" transform="translate(-13.293 -190.208)" fill="#2d2a28"/>
    <path id="Path_1825" data-name="Path 1825" d="M178.758,363.53a26.212,26.212,0,0,0-1.67-2.358q-.441-.551-.911-1.077c-.208-.234-.719-.933-1.094-.8-.525.191.272,2.012.391,2.336a18.134,18.134,0,0,0,1.3,2.75c.34.593-.5,1.038-.892.521a18.274,18.274,0,0,0-2.27-2.491,10.359,10.359,0,0,0-1.285-1.058c-.389-.253-1.024-.471-.86.238a7.561,7.561,0,0,0,1.426,2.576,11.161,11.161,0,0,0,2.33,2.286l-.626.811a9.522,9.522,0,0,0-2.018-1.4,8.628,8.628,0,0,0-1.066-.463c-.254-.09-.86-.358-.83.087.023.337.429.707.64.929a8.709,8.709,0,0,0,.814.756,8.377,8.377,0,0,0,2.161,1.264l-.4.944a5.509,5.509,0,0,0-.992-.425,2.47,2.47,0,0,0-1-.19c-.359.1-.095-.049-.1.081s.246.326.323.4a5.6,5.6,0,0,0,.675.575,6.906,6.906,0,0,0,3.192,1.264,6.609,6.609,0,0,0,1.726-.007A2.077,2.077,0,0,1,178.5,371a1.89,1.89,0,0,1,.621.475c.9.783,1.818,1.554,2.753,2.3a47.263,47.263,0,0,0,6.008,4.127,28.822,28.822,0,0,0,7.315,3.143c2.372.576,5.216.3,6.6-1.978a10.027,10.027,0,0,0,1.109-3.378c.251-1.331.477-2.671.661-4.012a21.139,21.139,0,0,0-.216-8.443c-.592-2.164-1.9-4.452-4.25-4.994a3.513,3.513,0,0,0-3.291.8c-1.005,1.014-1.316,2.6-1.647,3.94a48.6,48.6,0,0,0-1.285,9.441c-.019.4-.579.735-.881.365-1.973-2.414-5.1-3.282-7.589-5.015a9.664,9.664,0,0,1-3.015-3.336c-.758-1.381-1.347-3.007-2.653-3.981-.527-.393-.012-1.29.521-.892a10.572,10.572,0,0,1,2.787,3.909,9.138,9.138,0,0,0,3.009,3.5c2.538,1.725,5.67,2.641,7.67,5.088l-.881.365a52.506,52.506,0,0,1,.957-8.1,29.27,29.27,0,0,1,.944-3.665,5.538,5.538,0,0,1,1.753-2.71,4.977,4.977,0,0,1,5.6.033,8.865,8.865,0,0,1,3.4,5.587,22.458,22.458,0,0,1,.139,7.828c-.172,1.33-.4,2.651-.628,3.972a15.367,15.367,0,0,1-.847,3.268,5.89,5.89,0,0,1-4.883,3.659c-2.5.313-4.956-.66-7.2-1.636a51.411,51.411,0,0,1-13.077-8.8l.5.133a7.894,7.894,0,0,1-6.457-1.449c-.654-.506-1.875-1.6-1.035-2.478a1.616,1.616,0,0,1,1.486-.258,6.209,6.209,0,0,1,1.929.689c.5.27.153,1.165-.4.944a9.765,9.765,0,0,1-3.036-1.9c-.654-.607-1.66-1.594-1.279-2.591.43-1.126,1.783-.678,2.6-.341a10.578,10.578,0,0,1,3.022,1.925c.429.385-.148,1.16-.626.811a12.574,12.574,0,0,1-2.966-3.025,11.389,11.389,0,0,1-1.06-1.9,2.037,2.037,0,0,1-.153-1.671c1.276-2.666,5.5,2.629,6.252,3.632l-.892.521a19.5,19.5,0,0,1-1.637-3.674c-.285-.877-.75-2.269.3-2.845,1.082-.6,2.084.643,2.7,1.358a28.053,28.053,0,0,1,2.411,3.264c.357.563-.537,1.082-.892.521" transform="translate(-146.625 -308.681)" fill="#2d2a28"/>
    <path id="Path_1826" data-name="Path 1826" d="M114.561,319.646l-1.851-10.138.5.379c-3.6.347-7.193.791-10.794,1.139l.5-.654c.961,5.045,1.679,10.133,2.639,15.178l-.5-.379,7.439-.148a.517.517,0,0,1,0,1.033l-7.439.148a.521.521,0,0,1-.5-.379c-.961-5.045-1.678-10.133-2.639-15.178a.527.527,0,0,1,.5-.654c3.6-.348,7.193-.792,10.794-1.139a.516.516,0,0,1,.5.379l1.851,10.138c.118.65-.877.928-1,.275" transform="translate(-88.087 -266.977)" fill="#2d2a28"/>
    <path id="Path_1827" data-name="Path 1827" d="M342.905,206.091a3.257,3.257,0,0,1,3.535.234,3.81,3.81,0,0,1,1.415,3.741,4.694,4.694,0,0,1-2.407,3.457,3.319,3.319,0,0,1-3.907-.66l.863-.228a6.456,6.456,0,0,1-5.7,4.809c-.662.055-.659-.978,0-1.033a5.4,5.4,0,0,0,4.7-4.051.521.521,0,0,1,.863-.228c1.782,1.875,4.216-.17,4.563-2.183a2.814,2.814,0,0,0-.914-2.734,2.243,2.243,0,0,0-2.493-.234.517.517,0,0,1-.521-.892" transform="translate(-290.628 -177.789)" fill="#2d2a28"/>
    <path id="Path_1828" data-name="Path 1828" d="M216.657,266a31.933,31.933,0,0,1-9.687-2.63c-.605-.272-.081-1.162.521-.892a30.363,30.363,0,0,0,9.166,2.49c.654.071.661,1.1,0,1.033" transform="translate(-178.676 -226.845)" fill="#2d2a28"/>
    <path id="Path_1829" data-name="Path 1829" d="M157.832,198.617a7.558,7.558,0,0,0,1.135,5.651c.369.555-.525,1.073-.892.521a8.61,8.61,0,0,1-1.239-6.447c.132-.651,1.127-.375,1,.275" transform="translate(-135.423 -171.129)" fill="#2d2a28"/>
    <path id="Path_1830" data-name="Path 1830" d="M272.76,141.129a8.88,8.88,0,0,1,9.564,2.686c2.092,2.535,2.907,6.5.929,9.348s-6.022,3.227-9.067,2.124a8.307,8.307,0,0,1-5.67-6.642,7,7,0,0,1,4.243-7.516c.627-.225.9.773.275,1a5.8,5.8,0,0,0-3.535,5.513,6.925,6.925,0,0,0,3.955,6.21c2.446,1.274,6.013,1.524,8.2-.419,2.3-2.047,2.019-5.68.5-8.094a7.855,7.855,0,0,0-9.124-3.21c-.633.209-.9-.788-.275-1" transform="translate(-232.065 -121.609)" fill="#2d2a28"/>
    <path id="Path_1831" data-name="Path 1831" d="M142.475,111.33a7.96,7.96,0,0,1,6.548,3.709c1.538,2.436,1.565,5.79-.8,7.7a7.185,7.185,0,0,1-7.971.512,6.656,6.656,0,0,1-3.137-6.808c.482-2.639,2.554-5.057,5.363-5.112a.517.517,0,0,1,0,1.033,4.711,4.711,0,0,0-4.172,3.577,5.588,5.588,0,0,0,1.8,5.958,6.16,6.16,0,0,0,6.7.551A4.243,4.243,0,0,0,149,119.686a5.509,5.509,0,0,0-.625-3.714,6.906,6.906,0,0,0-5.9-3.608.517.517,0,0,1,0-1.033" transform="translate(-118.435 -96.236)" fill="#2d2a28"/>
    <path id="Path_1832" data-name="Path 1832" d="M231.006,168.092a3.558,3.558,0,0,0-4.974-1.913c-.587.31-1.11-.581-.521-.892a4.554,4.554,0,0,1,6.491,2.53.521.521,0,0,1-.361.635.527.527,0,0,1-.635-.361" transform="translate(-194.712 -142.405)" fill="#2d2a28"/>
    <path id="Path_1833" data-name="Path 1833" d="M219.3,212.647a3.39,3.39,0,0,1-6.407-1.658.517.517,0,0,1,1.033,0,2.359,2.359,0,0,0,4.482,1.137c.305-.591,1.2-.069.892.521" transform="translate(-184.028 -181.951)" fill="#2d2a28"/>
    <path id="Path_1834" data-name="Path 1834" d="M301.033,184.834c.018-.112.006.025.008-.079,0-.054.005-.108,0-.163s0-.108-.008-.163c-.007-.113.012.023-.011-.078a2.048,2.048,0,0,0-.182-.542,1.7,1.7,0,0,0-.811-.785,1.745,1.745,0,0,0-1.038-.089,1.665,1.665,0,0,0-.97.574.516.516,0,0,1-.73-.73,2.733,2.733,0,0,1,4.735,2.33.52.52,0,0,1-.635.361.529.529,0,0,1-.361-.635" transform="translate(-256.859 -157.211)" fill="#2d2a28"/>
    <path id="Path_1835" data-name="Path 1835" d="M174.482,153.217c0-.025-.026-.153,0-.032-.008-.035-.013-.07-.021-.1-.016-.07-.042-.135-.061-.2s.038.073-.005-.014c-.019-.038-.038-.076-.058-.114-.035-.062-.074-.121-.115-.18.041.059.019.024-.012-.012s-.047-.053-.072-.079-.06-.06-.092-.089c-.01-.009-.1-.083-.046-.041s-.04-.027-.051-.034c-.03-.02-.06-.038-.091-.056s-.062-.033-.094-.05c-.118-.063.094.028-.034-.015a2,2,0,0,0-.209-.06s-.134-.022-.06-.012-.047,0-.061,0a1.782,1.782,0,0,0-.239,0c-.054,0-.086.015-.014,0-.036.007-.071.013-.107.021a2.178,2.178,0,0,0-.23.069c-.092.032.035-.022-.017.007-.031.018-.065.032-.1.049a2.17,2.17,0,0,0-.183.117c.092-.064-.018.018-.03.029-.032.029-.063.06-.093.092a.521.521,0,0,1-.73,0,.527.527,0,0,1,0-.73,2.273,2.273,0,0,1,2.385-.563,2.3,2.3,0,0,1,1.47,2,.519.519,0,0,1-.516.516.529.529,0,0,1-.516-.516" transform="translate(-148.259 -130.596)" fill="#2d2a28"/>
    <path id="Path_1836" data-name="Path 1836" d="M213.587,118.1a33.422,33.422,0,0,0-17.506-3.759c-.664.04-.662-.993,0-1.033a34.453,34.453,0,0,1,18.027,3.9c.589.309.067,1.2-.521.892" transform="translate(-169.066 -97.89)" fill="#2d2a28"/>
    <path id="Path_1837" data-name="Path 1837" d="M115.736,33.983a20.113,20.113,0,0,1-3.2-18.441A22.246,22.246,0,0,1,125.807,1.786a26.529,26.529,0,0,1,20.022.366,32.942,32.942,0,0,1,15.817,14.034c3.662,6.464,4.776,14.409,1.691,21.329a18.855,18.855,0,0,1-1.332,2.465l-.446-.777a4.8,4.8,0,0,1,4.487,3.629,4.54,4.54,0,0,1-2.772,4.978v-1c2.19.862,4.742,1.459,6.119,3.547a4.025,4.025,0,0,1,.56,3.329,8.224,8.224,0,0,1-2.087,3.154l-.365-.881a6.263,6.263,0,0,1,5.405,3.208,5.391,5.391,0,0,1-1.012,6.005l-.1-.811a12.716,12.716,0,0,1,6.53,7.975.528.528,0,0,1-.361.635,36.125,36.125,0,0,1-9.112,1.721.529.529,0,0,1-.516-.516,28.469,28.469,0,0,1,.369-9.051l.5.654a6.221,6.221,0,0,1-5.148-3.026,5.315,5.315,0,0,1,.719-5.871l.228.863a6.749,6.749,0,0,1-5.024-3.579,5.707,5.707,0,0,1,1.079-6.163l.365.881a5.452,5.452,0,0,1-4.652-3.095,5.217,5.217,0,0,1,.933-5.527l.5.863a19.091,19.091,0,0,1-13.738-1.41l.758-.583c.722,2.547,2.94,4.379,4.62,6.31A71.925,71.925,0,0,1,162.1,65.287a71.339,71.339,0,0,1,2.88,8.437.517.517,0,0,1-1,.275,71.067,71.067,0,0,0-14.746-27.678c-1.839-2.124-4.217-4.111-5.01-6.909a.523.523,0,0,1,.758-.583,18,18,0,0,0,12.943,1.306.521.521,0,0,1,.5.863,4.16,4.16,0,0,0-.706,4.42,4.408,4.408,0,0,0,3.695,2.438.523.523,0,0,1,.365.881,4.635,4.635,0,0,0-.788,5.18,5.883,5.883,0,0,0,4.278,2.836.522.522,0,0,1,.228.863,4.239,4.239,0,0,0-.48,4.76A5.2,5.2,0,0,0,169.2,64.75a.525.525,0,0,1,.5.654,27.6,27.6,0,0,0-.333,8.776l-.516-.516a35.036,35.036,0,0,0,8.838-1.684l-.361.635a11.7,11.7,0,0,0-6.056-7.358.522.522,0,0,1-.1-.811,4.325,4.325,0,0,0,.78-4.894A5.247,5.247,0,0,0,167.5,57a.523.523,0,0,1-.365-.881,7.362,7.362,0,0,0,1.8-2.614,3.106,3.106,0,0,0-.645-2.91c-1.276-1.584-3.482-2.069-5.289-2.78a.522.522,0,0,1,0-1,3.476,3.476,0,0,0,2.02-3.853,3.762,3.762,0,0,0-3.46-2.724.522.522,0,0,1-.446-.777c3.918-6.139,3.758-13.976.805-20.469A31.789,31.789,0,0,0,147.853,4.235a26.242,26.242,0,0,0-19.046-2.366c-6.1,1.663-11.638,5.719-14.347,11.524a19.588,19.588,0,0,0,.673,17.944,16.361,16.361,0,0,0,1.332,1.915c.414.512-.312,1.248-.73.73" transform="translate(-96.46 0)" fill="#2d2a28"/>
    <path id="Path_1838" data-name="Path 1838" d="M224.05,275.554a5.3,5.3,0,0,1-3.624,7.05.517.517,0,0,1-.275-1,4.278,4.278,0,0,0,2.9-5.779.52.52,0,0,1,.361-.635.528.528,0,0,1,.635.361" transform="translate(-189.987 -237.865)" fill="#2d2a28"/>
    <path id="Path_1839" data-name="Path 1839" d="M247.419,311.564a16.4,16.4,0,0,1-7.847,5.843,16.212,16.212,0,0,1-11-.207c-.615-.235-.348-1.234.275-1a15.237,15.237,0,0,0,17.685-5.162c.388-.531,1.284-.017.892.521" transform="translate(-197.276 -268.677)" fill="#2d2a28"/>
    <path id="Path_1840" data-name="Path 1840" d="M138.664,460.894a52.43,52.43,0,0,0-3.989,13.937c-.093.655-1.088.376-1-.275a53.319,53.319,0,0,1,4.093-14.184c.27-.606,1.16-.081.892.521" transform="translate(-115.549 -397.721)" fill="#2d2a28"/>
    <path id="Path_1841" data-name="Path 1841" d="M72.427,283.707q1.63,11.695,4.139,23.242c.141.648-.855.925-1,.275q-2.507-11.538-4.139-23.242c-.091-.65.9-.931,1-.275" transform="translate(-61.741 -244.918)" fill="#2d2a28"/>
    <path id="Path_1842" data-name="Path 1842" d="M40.365,223.09c-.608-.381-1.216-.763-1.841-1.116a8.713,8.713,0,0,0-.911-.485,1.713,1.713,0,0,0-.913-.009q-2.114.256-4.2.717a38.4,38.4,0,0,0-8.014,2.708.527.527,0,0,1-.707-.185,24.6,24.6,0,0,0-5.862-7.129l.5.133-3.031.408c-.65.087-.931-.908-.274-1l1.84-.247c.435-.059,1.172-.313,1.588-.108a5.973,5.973,0,0,1,1.176,1.013q.623.577,1.2,1.2a26.281,26.281,0,0,1,3.751,5.207l-.706-.185a39.7,39.7,0,0,1,8.561-2.878c1.445-.309,2.907-.541,4.374-.712a1.832,1.832,0,0,1,.87,0,7.42,7.42,0,0,1,1,.5c.721.395,1.418.833,2.115,1.269.562.352.044,1.246-.521.892" transform="translate(-12.744 -187.32)" fill="#2d2a28"/>
    <path id="Path_1843" data-name="Path 1843" d="M33.856,383.5c.345,1.556.69,3.112,1.1,4.654l-.237-.309c1.513,1.043,3.026,2.086,4.519,3.158q1.146.822,2.274,1.67c.328.247.725.677,1.13.732a10.735,10.735,0,0,0,1.455-.011l11.643-.09a.517.517,0,0,1,0,1.033l-11.531.09-1.343.01a1.5,1.5,0,0,1-1.173-.337q-1.128-.865-2.279-1.7c-1.463-1.064-2.948-2.1-4.437-3.124-.334-.231-.852-.457-1.018-.847a9.437,9.437,0,0,1-.367-1.447c-.258-1.066-.495-2.137-.732-3.207-.143-.648.852-.924,1-.275" transform="translate(-28.393 -331.18)" fill="#2d2a28"/>
  </g>
</svg>
